<svg width="37" height="35" viewBox="0 0 37 35" fill="none" xmlns="http://www.w3.org/2000/svg">
<path d="M33.3 7.36842C34.373 7.36842 35.2425 7.73684 35.927 8.45526C36.63 9.21053 37 10.0395 37 11.0526V31.3158C37 32.3289 36.63 33.1579 35.927 33.9132C35.2425 34.6316 34.373 35 33.3 35H3.7C2.627 35 1.7575 34.6316 1.073 33.9132C0.37 33.1579 0 32.3289 0 31.3158V11.0526C0 10.0395 0.37 9.21053 1.073 8.45526C1.7575 7.73684 2.627 7.36842 3.7 7.36842H11.1V3.68421C11.1 2.61579 11.47 1.75 12.173 1.06842C12.8575 0.368421 13.727 0 14.8 0H22.2C23.273 0 24.1425 0.368421 24.827 1.06842C25.53 1.75 25.9 2.61579 25.9 3.68421V7.36842H33.3ZM3.7 11.0526V31.3158H33.3V11.0526H3.7ZM22.2 7.36842V3.68421H14.8V7.36842H22.2Z" fill="white"/>
</svg>
