<svg width="35" height="35" viewBox="0 0 35 35" fill="none" xmlns="http://www.w3.org/2000/svg">
<path d="M7 0C8.85652 0 10.637 0.737498 11.9497 2.05025C13.2625 3.36301 14 5.14348 14 7V10.5H21V7C21 5.14348 21.7375 3.36301 23.0503 2.05025C24.363 0.737498 26.1435 0 28 0C29.8565 0 31.637 0.737498 32.9497 2.05025C34.2625 3.36301 35 5.14348 35 7C35 8.85652 34.2625 10.637 32.9497 11.9497C31.637 13.2625 29.8565 14 28 14H24.5V21H28C29.8565 21 31.637 21.7375 32.9497 23.0503C34.2625 24.363 35 26.1435 35 28C35 29.8565 34.2625 31.637 32.9497 32.9497C31.637 34.2625 29.8565 35 28 35C26.1435 35 24.363 34.2625 23.0503 32.9497C21.7375 31.637 21 29.8565 21 28V24.5H14V28C14 29.8565 13.2625 31.637 11.9497 32.9497C10.637 34.2625 8.85652 35 7 35C5.14348 35 3.36301 34.2625 2.05025 32.9497C0.737498 31.637 0 29.8565 0 28C0 26.1435 0.737498 24.363 2.05025 23.0503C3.36301 21.7375 5.14348 21 7 21H10.5V14H7C5.14348 14 3.36301 13.2625 2.05025 11.9497C0.737498 10.637 0 8.85652 0 7C0 5.14348 0.737498 3.36301 2.05025 2.05025C3.36301 0.737498 5.14348 0 7 0ZM24.5 28C24.5 28.9283 24.8687 29.8185 25.5251 30.4749C26.1815 31.1313 27.0717 31.5 28 31.5C28.9283 31.5 29.8185 31.1313 30.4749 30.4749C31.1313 29.8185 31.5 28.9283 31.5 28C31.5 27.0717 31.1313 26.1815 30.4749 25.5251C29.8185 24.8687 28.9283 24.5 28 24.5H24.5V28ZM21 14H14V21H21V14ZM7 24.5C6.07174 24.5 5.1815 24.8687 4.52513 25.5251C3.86875 26.1815 3.5 27.0717 3.5 28C3.5 28.9283 3.86875 29.8185 4.52513 30.4749C5.1815 31.1313 6.07174 31.5 7 31.5C7.92826 31.5 8.8185 31.1313 9.47487 30.4749C10.1313 29.8185 10.5 28.9283 10.5 28V24.5H7ZM10.5 7C10.5 6.07174 10.1313 5.1815 9.47487 4.52513C8.8185 3.86875 7.92826 3.5 7 3.5C6.07174 3.5 5.1815 3.86875 4.52513 4.52513C3.86875 5.1815 3.5 6.07174 3.5 7C3.5 7.92826 3.86875 8.8185 4.52513 9.47487C5.1815 10.1313 6.07174 10.5 7 10.5H10.5V7ZM28 10.5C28.9283 10.5 29.8185 10.1313 30.4749 9.47487C31.1313 8.8185 31.5 7.92826 31.5 7C31.5 6.07174 31.1313 5.1815 30.4749 4.52513C29.8185 3.86875 28.9283 3.5 28 3.5C27.0717 3.5 26.1815 3.86875 25.5251 4.52513C24.8687 5.1815 24.5 6.07174 24.5 7V10.5H28Z" fill="white"/>
</svg>
