<svg width="35" height="35" viewBox="0 0 35 35" fill="none" xmlns="http://www.w3.org/2000/svg">
<path d="M3.5 7H0V31.5C0 33.4425 1.575 35 3.5 35H28V31.5H3.5V7ZM28.875 21.4375C28.875 18.8125 23.625 17.5 21 17.5C18.375 17.5 13.125 18.8125 13.125 21.4375V22.75H28.875M21 14.4375C23.17 14.4375 24.9375 12.67 24.9375 10.5C24.9375 8.33 23.17 6.5625 21 6.5625C18.83 6.5625 17.0625 8.33 17.0625 10.5C17.0625 12.67 18.83 14.4375 21 14.4375ZM31.5 0H10.5C8.575 0 7 1.575 7 3.5V24.5C7 26.4425 8.575 28 10.5 28H31.5C33.4425 28 35 26.4425 35 24.5V3.5C35 1.5575 33.425 0 31.5 0ZM31.5 24.5H10.5V3.5H31.5V24.5Z" fill="white"/>
</svg>
